<svg width="48" height="48" viewBox="0 0 48 48" fill="none" xmlns="http://www.w3.org/2000/svg">
<path d="M12 16V14C12 10.8174 13.2643 7.76515 15.5147 5.51472C17.7652 3.26428 20.8174 2 24 2C27.1826 2 30.2348 3.26428 32.4853 5.51472C34.7357 7.76515 36 10.8174 36 14V16H40C40.5304 16 41.0391 16.2107 41.4142 16.5858C41.7893 16.9609 42 17.4696 42 18V42C42 42.5304 41.7893 43.0391 41.4142 43.4142C41.0391 43.7893 40.5304 44 40 44H8C7.46957 44 6.96086 43.7893 6.58579 43.4142C6.21071 43.0391 6 42.5304 6 42V18C6 17.4696 6.21071 16.9609 6.58579 16.5858C6.96086 16.2107 7.46957 16 8 16H12ZM38 20H10V40H38V20ZM22 31.464C21.2374 31.0237 20.6414 30.3441 20.3045 29.5306C19.9675 28.7171 19.9084 27.8152 20.1363 26.9646C20.3642 26.1141 20.8664 25.3625 21.565 24.8265C22.2635 24.2904 23.1195 23.9999 24 23.9999C24.8805 23.9999 25.7365 24.2904 26.435 24.8265C27.1336 25.3625 27.6358 26.1141 27.8637 26.9646C28.0916 27.8152 28.0325 28.7171 27.6955 29.5306C27.3586 30.3441 26.7626 31.0237 26 31.464V36H22V31.464ZM16 16H32V14C32 11.8783 31.1571 9.84344 29.6569 8.34315C28.1566 6.84285 26.1217 6 24 6C21.8783 6 19.8434 6.84285 18.3431 8.34315C16.8429 9.84344 16 11.8783 16 14V16Z" fill="white"/>
</svg>
